<svg width="72" height="31" viewBox="0 0 72 31" fill="none" xmlns="http://www.w3.org/2000/svg">
<path d="M20.9592 22.4314C20.9592 22.7369 20.7595 22.957 20.4731 22.957C20.178 22.957 19.987 22.7234 19.987 22.4314C19.987 22.1395 20.178 21.9059 20.4731 21.9059C20.7595 21.9059 20.9592 22.1395 20.9592 22.4314ZM7.46962 21.9059C7.16146 21.9059 6.98351 22.1395 6.98351 22.4314C6.98351 22.7234 7.16146 22.957 7.46962 22.957C7.75174 22.957 7.94271 22.7369 7.94271 22.4314C7.93837 22.1395 7.75174 21.9059 7.46962 21.9059ZM12.5694 21.8924C12.3351 21.8924 12.1918 22.0496 12.1571 22.2832H12.9861C12.947 22.0271 12.7951 21.8924 12.5694 21.8924ZM17.2483 21.9059C16.9531 21.9059 16.7752 22.1395 16.7752 22.4314C16.7752 22.7234 16.9531 22.957 17.2483 22.957C17.5434 22.957 17.7344 22.7369 17.7344 22.4314C17.7344 22.1395 17.5434 21.9059 17.2483 21.9059ZM21.8446 23.0783C21.8446 23.0918 21.8576 23.1008 21.8576 23.1277C21.8576 23.1412 21.8446 23.1502 21.8446 23.1771C21.8316 23.1906 21.8316 23.1996 21.8229 23.2131C21.8099 23.2266 21.8012 23.2355 21.7752 23.2355C21.7622 23.249 21.7535 23.249 21.7274 23.249C21.7144 23.249 21.7057 23.249 21.6797 23.2355C21.6667 23.2355 21.658 23.2221 21.645 23.2131C21.6319 23.1996 21.6233 23.1906 21.6233 23.1771C21.6102 23.1547 21.6102 23.1412 21.6102 23.1277C21.6102 23.1053 21.6102 23.0918 21.6233 23.0783C21.6233 23.0559 21.6363 23.0424 21.645 23.0289C21.658 23.0154 21.6667 23.0154 21.6797 23.0064C21.7014 22.993 21.7144 22.993 21.7274 22.993C21.7491 22.993 21.7622 22.993 21.7752 23.0064C21.7969 23.0199 21.8099 23.0199 21.8229 23.0289C21.8359 23.0379 21.8316 23.0559 21.8446 23.0783ZM21.7491 23.1412C21.7708 23.1412 21.7708 23.1277 21.7839 23.1277C21.7969 23.1143 21.7969 23.1053 21.7969 23.0918C21.7969 23.0783 21.7969 23.0693 21.7839 23.0559C21.7708 23.0559 21.7622 23.0424 21.7361 23.0424H21.6667V23.1996H21.7014V23.1367H21.7144L21.7622 23.1996H21.7969L21.7491 23.1412V23.1412ZM25 7.63867V23.4512C25 24.6416 24.0668 25.6074 22.9167 25.6074H2.08333C0.93316 25.6074 0 24.6416 0 23.4512V7.63867C0 6.44824 0.93316 5.48242 2.08333 5.48242H22.9167C24.0668 5.48242 25 6.44824 25 7.63867ZM2.77778 13.9098C2.77778 17.3463 5.47309 20.1314 8.78906 20.1314C9.96962 20.1314 11.1285 19.7631 12.1094 19.0938C8.94531 16.4299 8.96701 11.4031 12.1094 8.73926C11.1285 8.06543 9.96962 7.70156 8.78906 7.70156C5.47309 7.69707 2.77778 10.4867 2.77778 13.9098ZM12.5 18.7973C15.5599 16.3266 15.5469 11.5109 12.5 9.02676C9.45312 11.5109 9.4401 16.3311 12.5 18.7973ZM6.32378 22.2248C6.32378 21.834 6.07639 21.5779 5.68576 21.5645C5.48611 21.5645 5.27344 21.6273 5.13021 21.8564C5.02604 21.6723 4.84809 21.5645 4.60069 21.5645C4.43576 21.5645 4.27083 21.6273 4.14062 21.807V21.6094H3.78472V23.258H4.14062C4.14062 22.409 4.03212 21.9014 4.53125 21.9014C4.97396 21.9014 4.88715 22.3596 4.88715 23.258H5.23003C5.23003 22.4359 5.12153 21.9014 5.62066 21.9014C6.06337 21.9014 5.97656 22.3506 5.97656 23.258H6.33246V22.2248H6.32378ZM8.27257 21.6094H7.92969V21.807C7.8125 21.6588 7.64757 21.5645 7.42187 21.5645C6.97483 21.5645 6.63194 21.9328 6.63194 22.4314C6.63194 22.9346 6.97483 23.2984 7.42187 23.2984C7.64757 23.2984 7.8125 23.2131 7.92969 23.0559V23.2625H8.27257V21.6094ZM10.0304 22.7594C10.0304 22.0855 9.03646 22.391 9.03646 22.0766C9.03646 21.8205 9.55295 21.8609 9.83941 22.0271L9.98264 21.7352C9.57465 21.4611 8.67187 21.4656 8.67187 22.1035C8.67187 22.7459 9.6658 22.4764 9.6658 22.7773C9.6658 23.0604 9.07986 23.0379 8.76736 22.8133L8.61545 23.0963C9.10156 23.4377 10.0304 23.3658 10.0304 22.7594V22.7594ZM11.5668 23.1771L11.4714 22.8717C11.3064 22.966 10.9418 23.0693 10.9418 22.6875V21.9418H11.5104V21.6094H10.9418V21.1062H10.5859V21.6094H10.2561V21.9373H10.5859V22.6875C10.5859 23.4781 11.3368 23.3344 11.5668 23.1771V23.1771ZM12.1441 22.5752H13.3377C13.3377 21.8475 13.0165 21.56 12.5825 21.56C12.1224 21.56 11.7925 21.9148 11.7925 22.427C11.7925 23.3479 12.7734 23.5006 13.2595 23.0648L13.0946 22.7953C12.7561 23.0828 12.2439 23.0559 12.1441 22.5752V22.5752ZM14.7092 21.6094C14.5095 21.5195 14.2057 21.5285 14.0495 21.807V21.6094H13.6936V23.258H14.0495V22.3281C14.0495 21.807 14.4618 21.8744 14.605 21.9508L14.7092 21.6094V21.6094ZM15.1693 22.4314C15.1693 21.9193 15.6727 21.7531 16.0677 22.0541L16.2326 21.7621C15.7292 21.3533 14.8134 21.5779 14.8134 22.4359C14.8134 23.3254 15.7856 23.5051 16.2326 23.1098L16.0677 22.8178C15.6684 23.1098 15.1693 22.9346 15.1693 22.4314ZM18.0642 21.6094H17.7083V21.807C17.3481 21.3129 16.4106 21.5914 16.4106 22.4314C16.4106 23.2939 17.3828 23.541 17.7083 23.0559V23.2625H18.0642V21.6094V21.6094ZM19.5269 21.6094C19.4227 21.5555 19.0495 21.4791 18.8672 21.807V21.6094H18.5243V23.258H18.8672V22.3281C18.8672 21.834 19.2578 21.8654 19.4227 21.9508L19.5269 21.6094V21.6094ZM21.276 20.94H20.9332V21.807C20.5773 21.3174 19.6354 21.5779 19.6354 22.4314C19.6354 23.3029 20.612 23.5365 20.9332 23.0559V23.2625H21.276V20.94ZM21.6059 17.5664V17.773H21.6406V17.5664H21.7231V17.5305H21.5234V17.5664H21.6059V17.5664ZM21.8924 23.1277C21.8924 23.1053 21.8924 23.0783 21.8793 23.0559C21.8663 23.0424 21.8576 23.0199 21.8446 23.0064C21.8316 22.993 21.8099 22.984 21.7969 22.9705C21.7752 22.9705 21.7491 22.957 21.7274 22.957C21.7144 22.957 21.6927 22.9705 21.6667 22.9705C21.645 22.984 21.6319 22.993 21.6189 23.0064C21.5972 23.0199 21.5842 23.0424 21.5842 23.0559C21.5712 23.0783 21.5712 23.1053 21.5712 23.1277C21.5712 23.1412 21.5712 23.1637 21.5842 23.1906C21.5842 23.2041 21.5972 23.2266 21.6189 23.24C21.6319 23.2535 21.6406 23.2625 21.6667 23.276C21.6884 23.2895 21.7144 23.2895 21.7274 23.2895C21.7491 23.2895 21.7752 23.2895 21.7969 23.276C21.8099 23.2625 21.8316 23.2535 21.8446 23.24C21.8576 23.2266 21.8663 23.2041 21.8793 23.1906C21.8924 23.1637 21.8924 23.1412 21.8924 23.1277ZM22.0312 17.526H21.9705L21.901 17.6832L21.8316 17.526H21.7708V17.7686H21.8056V17.5844L21.875 17.7416H21.9227L21.9835 17.5844V17.7686H22.0312V17.526V17.526ZM22.2222 13.9098C22.2222 10.4867 19.5269 7.69707 16.2109 7.69707C15.0304 7.69707 13.8715 8.06543 12.8906 8.73477C16.02 11.3986 16.0677 16.4389 12.8906 19.0893C13.8715 19.7631 15.0391 20.127 16.2109 20.127C19.5269 20.1314 22.2222 17.3463 22.2222 13.9098V13.9098Z" fill="#8061FF"/>
<path d="M42.24 5.76599C41.5553 5.76599 41 6.32114 41 7.00599V23.994C41 24.6788 41.5556 25.234 42.24 25.234H70.76C71.4447 25.234 72 24.6788 72 23.994V7.00599C72 6.32117 71.4444 5.76599 70.76 5.76599H42.24ZM59.5147 11.5678C60.2692 11.5678 60.8739 11.7345 61.2595 11.8895L60.996 13.547L60.8216 13.4588C60.4624 13.3039 60.001 13.1547 59.3646 13.1653C58.6027 13.1653 58.2505 13.5051 58.2505 13.8231C58.2461 14.1814 58.6621 14.4177 59.3423 14.7715C60.465 15.3174 60.9839 15.9793 60.9766 16.8495C60.9615 18.4372 59.6336 19.4632 57.5879 19.4632C56.7152 19.4535 55.8744 19.2688 55.4198 19.0553L55.693 17.3425L55.944 17.4646C56.5831 17.7502 56.9969 17.8657 57.7758 17.8657C58.3352 17.8657 58.9355 17.6315 58.9403 17.1188C58.9439 16.784 58.6893 16.5453 57.9318 16.1704C57.1936 15.8044 56.215 15.1915 56.2259 14.0924C56.2374 12.6056 57.5918 11.5678 59.5147 11.5678ZM43.7415 11.811H46.8832C47.3063 11.827 47.6478 11.9632 47.7657 12.4223L48.4429 15.9175C48.443 15.9178 48.4428 15.9191 48.4429 15.9195L48.6463 16.9667L50.5538 11.811H52.6172L49.5502 19.3576L47.4887 19.3595L45.8476 13.2699C46.8241 13.7872 47.6554 14.3857 48.1368 15.2094C48.0127 14.9487 47.8491 14.6546 47.6398 14.3646C47.3961 14.027 46.8698 13.591 46.6497 13.4055C45.8831 12.7593 44.842 12.2373 43.7173 11.9612L43.7415 11.811ZM53.4378 11.8197H55.4557L54.1934 19.3547H52.1755L53.4378 11.8197ZM64.8351 11.8197H66.3638L67.9642 19.3547H66.1294C66.1294 19.3547 65.9473 18.489 65.8882 18.2251C65.5998 18.2251 63.5828 18.2222 63.3558 18.2222C63.279 18.4262 62.9393 19.3546 62.9393 19.3546H60.8632L63.7995 12.4455C64.0074 11.9546 64.3618 11.8197 64.8351 11.8197ZM64.9853 13.8463C64.886 14.1266 64.7131 14.5792 64.7247 14.5593C64.7247 14.5593 64.1035 16.216 63.941 16.646L65.5733 16.645C65.4946 16.2714 65.118 14.4896 65.118 14.4896L64.9853 13.8464V13.8463Z" fill="#8061FF"/>
</svg>
