<svg width="25" height="25" viewBox="0 0 25 25" fill="none" xmlns="http://www.w3.org/2000/svg">
<path d="M17.5 2.5H7.5C4.73858 2.5 2.5 4.73858 2.5 7.5V17.5C2.5 20.2614 4.73858 22.5 7.5 22.5H17.5C20.2614 22.5 22.5 20.2614 22.5 17.5V7.5C22.5 4.73858 20.2614 2.5 17.5 2.5Z" stroke="#B4E687" stroke-width="2" stroke-linecap="round" stroke-linejoin="round"/>
<path d="M16.5002 11.8701C16.6236 12.7023 16.4815 13.5523 16.094 14.2991C15.7065 15.0459 15.0933 15.6515 14.3418 16.0297C13.5903 16.408 12.7386 16.5397 11.908 16.406C11.0773 16.2723 10.31 15.8801 9.71503 15.2852C9.12011 14.6903 8.72793 13.9229 8.59426 13.0923C8.4606 12.2616 8.59226 11.41 8.97052 10.6584C9.34878 9.90691 9.95438 9.2938 10.7012 8.9063C11.448 8.5188 12.2979 8.37665 13.1302 8.50006C13.9791 8.62594 14.765 9.02152 15.3719 9.62836C15.9787 10.2352 16.3743 11.0211 16.5002 11.8701Z" stroke="#B4E687" stroke-width="2" stroke-linecap="round" stroke-linejoin="round"/>
<path d="M18 7H18.01" stroke="#B4E687" stroke-width="2" stroke-linecap="round" stroke-linejoin="round"/>
</svg>
