<svg width="71" height="70" viewBox="0 0 71 70" fill="none" xmlns="http://www.w3.org/2000/svg">
<path d="M18.3019 12.8322C18.3019 14.8269 20.8508 16.3318 24.2324 16.3318C27.6139 16.3318 30.1628 14.8269 30.1628 12.8322C30.1628 10.8374 27.6139 9.33252 24.2324 9.33252C20.8508 9.33252 18.3019 10.8374 18.3019 12.8322ZM24.2324 11.6656C26.5286 11.6656 27.7906 12.5417 27.7906 12.8322C27.7906 13.1226 26.5286 13.9987 24.2324 13.9987C21.9361 13.9987 20.6741 13.1226 20.6741 12.8322C20.6741 12.5417 21.9361 11.6656 24.2324 11.6656Z" fill="white"/>
<path d="M40.8375 41.9957C40.8375 43.9905 43.3864 45.4954 46.7679 45.4954C50.1495 45.4954 52.6984 43.9905 52.6984 41.9957C52.6984 40.0009 50.1495 38.4961 46.7679 38.4961C43.3864 38.4961 40.8375 40.0009 40.8375 41.9957ZM50.3262 41.9957C50.3262 42.2862 49.0642 43.1623 46.7679 43.1623C44.4717 43.1623 43.2097 42.2862 43.2097 41.9957C43.2097 41.7053 44.4717 40.8292 46.7679 40.8292C49.0642 40.8292 50.3262 41.7053 50.3262 41.9957Z" fill="white"/>
<path d="M70.4896 40.8292C70.4822 40.7468 70.4655 40.6654 70.4398 40.5866C70.6079 40.0192 70.318 39.4178 69.765 39.1867L63.1786 36.4558C62.5488 34.9125 60.3024 33.8299 57.4427 33.8299C56.5947 33.8299 57.7606 34.2172 52.6047 32.0801C52.2239 30.6138 50.4104 29.5021 47.954 29.2303C47.954 10.0989 48.0003 10.9657 47.8615 10.6414C47.7384 10.3672 47.5167 10.1474 47.2388 10.0243C47.0111 9.92744 47.2459 10.0243 40.643 7.28755C40.0132 5.74888 37.7668 4.66633 34.9071 4.66633C34.0591 4.66633 35.225 5.05362 30.0691 2.91651C29.049 -0.969253 19.4169 -0.975085 18.3956 2.91651C13.2504 5.04895 14.408 4.66633 13.5576 4.66633C10.6979 4.66633 8.45743 5.74888 7.82169 7.28755C4.51252 8.66057 1.06101 10.0873 1.22706 10.0243C0.971986 10.1323 0.766054 10.3287 0.648253 10.576C0.44306 10.9762 0.510667 8.26512 0.510667 50.1616C0.510504 50.6311 0.796562 51.055 1.23655 51.2371C48.8021 70.9342 46.2402 69.9928 46.768 69.9928C47.1689 69.9928 45.6768 70.5434 69.7638 60.5695C69.9854 60.4912 70.1682 60.3326 70.275 60.1262C70.5715 59.6864 70.4896 61.0898 70.4896 40.8292ZM47.954 50.3646L68.1175 42.0144V58.7193L47.954 67.0695V50.3646ZM61.001 37.3296C61.001 37.62 59.739 38.4961 57.4427 38.4961C55.1465 38.4961 53.8845 37.62 53.8845 37.3296C53.8845 37.0391 55.1465 36.163 57.4427 36.163C59.739 36.163 61.001 37.0391 61.001 37.3296ZM57.4427 40.8292C59.4469 40.9834 61.4169 40.2523 62.8181 38.8344L66.2494 40.2564L46.768 48.3243L27.2865 40.2564L30.7179 38.8344C32.119 40.2523 34.089 40.9834 36.0932 40.8292C41.8825 40.8292 43.7055 36.863 40.3536 34.8518L41.5587 34.3526C43.7328 36.772 49.8043 36.7708 51.9772 34.3526L53.1823 34.8518C49.7972 36.8805 51.7222 40.8292 57.4427 40.8292ZM40.9312 32.0801C35.786 34.2126 36.9436 33.8299 36.0932 33.8299C33.2335 33.8299 30.993 34.9125 30.3573 36.4512L25.4184 38.4961V21.2009L45.5819 12.8508V29.2303C43.1255 29.5021 41.312 30.6138 40.9312 32.0801ZM36.0932 36.163C38.3895 36.163 39.6515 37.0391 39.6515 37.3296C39.6515 37.62 38.3895 38.4961 36.0932 38.4961C33.7969 38.4961 32.5349 37.62 32.5349 37.3296C32.5349 37.0391 33.7969 36.163 36.0932 36.163ZM2.88284 12.8508L23.0463 21.2009V38.4961L2.88284 30.1507V12.8508ZM50.3262 32.6634C50.3262 32.9539 49.0642 33.8299 46.768 33.8299C44.4717 33.8299 43.2097 32.9539 43.2097 32.6634C43.2097 32.3729 44.4717 31.4969 46.768 31.4969C49.0642 31.4969 50.3262 32.3729 50.3262 32.6634ZM38.4654 8.16596C38.4654 8.45643 37.2034 9.3325 34.9071 9.3325C32.6109 9.3325 31.3489 8.45643 31.3489 8.16596C31.3489 7.87549 32.6109 6.99941 34.9071 6.99941C37.2034 6.99941 38.4654 7.87549 38.4654 8.16596ZM24.2324 2.33324C26.5286 2.33324 27.7906 3.20931 27.7906 3.49978C27.7906 3.79025 26.5286 4.66633 24.2324 4.66633C21.9361 4.66633 20.6741 3.79025 20.6741 3.49978C20.6741 3.20931 21.9361 2.33324 24.2324 2.33324ZM19.0231 5.18894C21.1972 7.60835 27.2687 7.60718 29.4416 5.18894L30.6467 5.68822C29.6809 6.16249 29.0447 7.10639 28.9767 8.16596C28.9767 12.0786 37.8012 12.8951 40.2825 9.6708L43.7126 11.0928L24.2324 19.1606L4.7521 11.0928L8.18226 9.6708C10.6612 12.8916 19.488 12.0821 19.488 8.16596C19.42 7.10639 18.7838 6.16249 17.818 5.68822L19.0231 5.18894ZM13.5576 6.99941C15.8539 6.99941 17.1158 7.87549 17.1158 8.16596C17.1158 8.45643 15.8539 9.3325 13.5576 9.3325C11.2613 9.3325 9.99934 8.45643 9.99934 8.16596C9.99934 7.87549 11.2613 6.99941 13.5576 6.99941ZM2.88284 32.6821L23.7698 41.332L45.5819 50.3646V67.0695L2.88284 49.387V32.6821Z" fill="white"/>
<path d="M42.498 60.7573L16.4042 49.6402C16.0133 49.4626 15.5552 49.5074 15.2075 49.7572C14.8598 50.007 14.677 50.4224 14.7299 50.8427C14.7829 51.263 15.0632 51.622 15.4624 51.7808L41.5563 62.8968C41.9482 63.0817 42.4116 63.041 42.764 62.7906C43.1164 62.5402 43.3012 62.1202 43.2457 61.6962C43.1903 61.2721 42.9034 60.9119 42.498 60.7573Z" fill="white"/>
<path d="M10.4737 47.1075L6.91549 45.591C6.31448 45.3333 5.61485 45.6036 5.35282 46.1947C5.0908 46.7858 5.36561 47.4739 5.96662 47.7316L9.52488 49.2481C9.91366 49.4148 10.3633 49.3649 10.7045 49.1171C11.0457 48.8693 11.2266 48.4613 11.179 48.0468C11.1314 47.6323 10.8625 47.2742 10.4737 47.1075Z" fill="white"/>
</svg>
