<svg width="25" height="23" viewBox="0 0 25 23" fill="none" xmlns="http://www.w3.org/2000/svg">
<path d="M20.9592 18.4314C20.9592 18.7369 20.7595 18.957 20.4731 18.957C20.178 18.957 19.987 18.7234 19.987 18.4314C19.987 18.1395 20.178 17.9059 20.4731 17.9059C20.7595 17.9059 20.9592 18.1395 20.9592 18.4314ZM7.46962 17.9059C7.16146 17.9059 6.98351 18.1395 6.98351 18.4314C6.98351 18.7234 7.16146 18.957 7.46962 18.957C7.75174 18.957 7.94271 18.7369 7.94271 18.4314C7.93837 18.1395 7.75174 17.9059 7.46962 17.9059ZM12.5694 17.8924C12.3351 17.8924 12.1918 18.0496 12.1571 18.2832H12.9861C12.947 18.0271 12.7951 17.8924 12.5694 17.8924ZM17.2483 17.9059C16.9531 17.9059 16.7752 18.1395 16.7752 18.4314C16.7752 18.7234 16.9531 18.957 17.2483 18.957C17.5434 18.957 17.7344 18.7369 17.7344 18.4314C17.7344 18.1395 17.5434 17.9059 17.2483 17.9059ZM21.8446 19.0783C21.8446 19.0918 21.8576 19.1008 21.8576 19.1277C21.8576 19.1412 21.8446 19.1502 21.8446 19.1771C21.8316 19.1906 21.8316 19.1996 21.8229 19.2131C21.8099 19.2266 21.8012 19.2355 21.7752 19.2355C21.7622 19.249 21.7535 19.249 21.7274 19.249C21.7144 19.249 21.7057 19.249 21.6797 19.2355C21.6667 19.2355 21.658 19.2221 21.645 19.2131C21.6319 19.1996 21.6233 19.1906 21.6233 19.1771C21.6102 19.1547 21.6102 19.1412 21.6102 19.1277C21.6102 19.1053 21.6102 19.0918 21.6233 19.0783C21.6233 19.0559 21.6363 19.0424 21.645 19.0289C21.658 19.0154 21.6667 19.0154 21.6797 19.0064C21.7014 18.993 21.7144 18.993 21.7274 18.993C21.7491 18.993 21.7622 18.993 21.7752 19.0064C21.7969 19.0199 21.8099 19.0199 21.8229 19.0289C21.8359 19.0379 21.8316 19.0559 21.8446 19.0783ZM21.7491 19.1412C21.7708 19.1412 21.7708 19.1277 21.7839 19.1277C21.7969 19.1143 21.7969 19.1053 21.7969 19.0918C21.7969 19.0783 21.7969 19.0693 21.7839 19.0559C21.7708 19.0559 21.7622 19.0424 21.7361 19.0424H21.6667V19.1996H21.7014V19.1367H21.7144L21.7622 19.1996H21.7969L21.7491 19.1412ZM25 3.63867V19.4512C25 20.6416 24.0668 21.6074 22.9167 21.6074H2.08333C0.93316 21.6074 0 20.6416 0 19.4512V3.63867C0 2.44824 0.93316 1.48242 2.08333 1.48242H22.9167C24.0668 1.48242 25 2.44824 25 3.63867ZM2.77778 9.90977C2.77778 13.3463 5.47309 16.1314 8.78906 16.1314C9.96962 16.1314 11.1285 15.7631 12.1094 15.0938C8.94531 12.4299 8.96701 7.40312 12.1094 4.73926C11.1285 4.06543 9.96962 3.70156 8.78906 3.70156C5.47309 3.69707 2.77778 6.48672 2.77778 9.90977ZM12.5 14.7973C15.5599 12.3266 15.5469 7.51094 12.5 5.02676C9.45312 7.51094 9.4401 12.3311 12.5 14.7973ZM6.32378 18.2248C6.32378 17.834 6.07639 17.5779 5.68576 17.5645C5.48611 17.5645 5.27344 17.6273 5.13021 17.8564C5.02604 17.6723 4.84809 17.5645 4.60069 17.5645C4.43576 17.5645 4.27083 17.6273 4.14062 17.807V17.6094H3.78472V19.258H4.14062C4.14062 18.409 4.03212 17.9014 4.53125 17.9014C4.97396 17.9014 4.88715 18.3596 4.88715 19.258H5.23003C5.23003 18.4359 5.12153 17.9014 5.62066 17.9014C6.06337 17.9014 5.97656 18.3506 5.97656 19.258H6.33246V18.2248H6.32378ZM8.27257 17.6094H7.92969V17.807C7.8125 17.6588 7.64757 17.5645 7.42187 17.5645C6.97483 17.5645 6.63194 17.9328 6.63194 18.4314C6.63194 18.9346 6.97483 19.2984 7.42187 19.2984C7.64757 19.2984 7.8125 19.2131 7.92969 19.0559V19.2625H8.27257V17.6094ZM10.0304 18.7594C10.0304 18.0855 9.03646 18.391 9.03646 18.0766C9.03646 17.8205 9.55295 17.8609 9.83941 18.0271L9.98264 17.7352C9.57465 17.4611 8.67188 17.4656 8.67188 18.1035C8.67188 18.7459 9.6658 18.4764 9.6658 18.7773C9.6658 19.0604 9.07986 19.0379 8.76736 18.8133L8.61545 19.0963C9.10156 19.4377 10.0304 19.3658 10.0304 18.7594ZM11.5668 19.1771L11.4714 18.8717C11.3064 18.966 10.9418 19.0693 10.9418 18.6875V17.9418H11.5104V17.6094H10.9418V17.1062H10.5859V17.6094H10.2561V17.9373H10.5859V18.6875C10.5859 19.4781 11.3368 19.3344 11.5668 19.1771ZM12.1441 18.5752H13.3377C13.3377 17.8475 13.0165 17.56 12.5825 17.56C12.1224 17.56 11.7925 17.9148 11.7925 18.427C11.7925 19.3479 12.7734 19.5006 13.2595 19.0648L13.0946 18.7953C12.7561 19.0828 12.2439 19.0559 12.1441 18.5752ZM14.7092 17.6094C14.5095 17.5195 14.2057 17.5285 14.0495 17.807V17.6094H13.6936V19.258H14.0495V18.3281C14.0495 17.807 14.4618 17.8744 14.605 17.9508L14.7092 17.6094ZM15.1693 18.4314C15.1693 17.9193 15.6727 17.7531 16.0677 18.0541L16.2326 17.7621C15.7292 17.3533 14.8134 17.5779 14.8134 18.4359C14.8134 19.3254 15.7856 19.5051 16.2326 19.1098L16.0677 18.8178C15.6684 19.1098 15.1693 18.9346 15.1693 18.4314ZM18.0642 17.6094H17.7083V17.807C17.3481 17.3129 16.4106 17.5914 16.4106 18.4314C16.4106 19.2939 17.3828 19.541 17.7083 19.0559V19.2625H18.0642V17.6094ZM19.5269 17.6094C19.4227 17.5555 19.0495 17.4791 18.8672 17.807V17.6094H18.5243V19.258H18.8672V18.3281C18.8672 17.834 19.2578 17.8654 19.4227 17.9508L19.5269 17.6094ZM21.276 16.94H20.9332V17.807C20.5773 17.3174 19.6354 17.5779 19.6354 18.4314C19.6354 19.3029 20.612 19.5365 20.9332 19.0559V19.2625H21.276V16.94ZM21.6059 13.5664V13.773H21.6406V13.5664H21.7231V13.5305H21.5234V13.5664H21.6059ZM21.8924 19.1277C21.8924 19.1053 21.8924 19.0783 21.8793 19.0559C21.8663 19.0424 21.8576 19.0199 21.8446 19.0064C21.8316 18.993 21.8099 18.984 21.7969 18.9705C21.7752 18.9705 21.7491 18.957 21.7274 18.957C21.7144 18.957 21.6927 18.9705 21.6667 18.9705C21.645 18.984 21.6319 18.993 21.6189 19.0064C21.5972 19.0199 21.5842 19.0424 21.5842 19.0559C21.5712 19.0783 21.5712 19.1053 21.5712 19.1277C21.5712 19.1412 21.5712 19.1637 21.5842 19.1906C21.5842 19.2041 21.5972 19.2266 21.6189 19.24C21.6319 19.2535 21.6406 19.2625 21.6667 19.276C21.6884 19.2895 21.7144 19.2895 21.7274 19.2895C21.7491 19.2895 21.7752 19.2895 21.7969 19.276C21.8099 19.2625 21.8316 19.2535 21.8446 19.24C21.8576 19.2266 21.8663 19.2041 21.8793 19.1906C21.8924 19.1637 21.8924 19.1412 21.8924 19.1277ZM22.0312 13.526H21.9705L21.901 13.6832L21.8316 13.526H21.7708V13.7686H21.8056V13.5844L21.875 13.7416H21.9227L21.9835 13.5844V13.7686H22.0312V13.526ZM22.2222 9.90977C22.2222 6.48672 19.5269 3.69707 16.2109 3.69707C15.0304 3.69707 13.8715 4.06543 12.8906 4.73477C16.02 7.39863 16.0677 12.4389 12.8906 15.0893C13.8715 15.7631 15.0391 16.127 16.2109 16.127C19.5269 16.1314 22.2222 13.3463 22.2222 9.90977Z" fill="#8061FF"/>
</svg>
