<svg width="71" height="71" viewBox="0 0 71 71" fill="none" xmlns="http://www.w3.org/2000/svg">
<g clip-path="url(#clip0)">
<path d="M58.2615 22.3528H52.9452L44.0414 13.4515C44.0412 13.4513 44.0412 13.4513 44.0411 13.4512C43.7962 13.1929 43.4564 13.0439 43.1006 13.0507C43.0843 13.051 43.0749 13.0513 43.0748 13.0513H36.3795V8.16591C36.3795 7.43775 35.8301 6.802 35.1035 6.75484C34.3073 6.70316 33.6451 7.33384 33.6451 8.11902V13.0511H31.7393V7.22282C31.7393 3.60196 28.8748 0.569133 25.2544 0.500363C21.5498 0.429953 18.5137 3.42245 18.5137 7.11044V13.0511H12.7391C11.1471 13.0511 9.85663 14.3416 9.85663 15.9336V59.9614C9.85663 61.5531 11.147 62.8434 12.7387 62.8434H17.2541V67.6172C17.2541 69.2089 18.5444 70.4993 20.1361 70.4993H58.2616C59.8533 70.4993 61.1437 69.2089 61.1437 67.6172V25.2348C61.1434 23.6432 59.8532 22.3528 58.2615 22.3528ZM44.4418 17.7184L49.0775 22.3528H44.4418V17.7184ZM21.2479 7.11058C21.2479 4.97284 22.9878 3.23364 25.1263 3.23364C27.2649 3.23364 29.0048 4.97284 29.0048 7.11058V13.0513H26.406V9.73271C26.406 8.97761 25.7938 8.36552 25.0388 8.36552C24.2839 8.36552 23.6716 8.97761 23.6716 9.73271V13.0513H21.2478V7.11058H21.2479ZM26.406 15.7857H29.0048V17.6486C29.0048 18.3646 28.4218 18.9473 27.7054 18.9473C26.989 18.9473 26.406 18.3647 26.406 17.6486V15.7857ZM12.591 59.9615V15.9332C12.591 15.8518 12.6573 15.7855 12.7391 15.7855H23.6718V17.6484C23.6718 19.8723 25.4813 21.6815 27.7055 21.6815C29.9298 21.6815 31.7393 19.8723 31.7393 17.6484V15.7855H41.7076V23.72C41.7076 24.4751 42.3198 25.0872 43.0748 25.0872H51.0118V59.9615C51.0118 60.0429 50.9455 60.1092 50.8638 60.1092H12.7391C12.6573 60.1091 12.591 60.0429 12.591 59.9615ZM58.409 67.6172C58.409 67.6986 58.3427 67.7649 58.261 67.7649H20.1364C20.0546 67.7649 19.9883 67.6987 19.9883 67.6172V62.8434H50.8636C52.453 62.8434 53.7461 61.5506 53.7461 59.9614V25.0872H58.261C58.3427 25.0872 58.409 25.1534 58.409 25.2348V67.6172Z" fill="white"/>
<path d="M19.8807 22.5608C17.6009 22.5608 15.7463 24.4151 15.7463 26.6945C15.7463 28.9739 17.6009 30.8282 19.8807 30.8282C22.1605 30.8282 24.0152 28.9739 24.0152 26.6945C24.0152 24.4151 22.1605 22.5608 19.8807 22.5608ZM19.8807 28.0939C19.1088 28.0939 18.4807 27.4661 18.4807 26.6946C18.4807 25.9231 19.1088 25.2953 19.8807 25.2953C20.6528 25.2953 21.2809 25.9231 21.2809 26.6946C21.2809 27.4661 20.6528 28.0939 19.8807 28.0939Z" fill="white"/>
<path d="M19.8807 35.0618C17.6009 35.0618 15.7463 36.9161 15.7463 39.1955C15.7463 41.4748 17.6009 43.3291 19.8807 43.3291C22.1605 43.3291 24.0152 41.4748 24.0152 39.1955C24.0152 36.9161 22.1605 35.0618 19.8807 35.0618ZM19.8807 40.5949C19.1088 40.5949 18.4807 39.9671 18.4807 39.1956C18.4807 38.4241 19.1088 37.7963 19.8807 37.7963C20.6528 37.7963 21.2809 38.4241 21.2809 39.1956C21.2809 39.9671 20.6528 40.5949 19.8807 40.5949Z" fill="white"/>
<path d="M19.8807 47.563C17.6009 47.563 15.7463 49.4173 15.7463 51.6967C15.7463 53.9761 17.6009 55.8304 19.8807 55.8304C22.1605 55.8304 24.0152 53.9761 24.0152 51.6967C24.0152 49.4173 22.1605 47.563 19.8807 47.563ZM19.8807 53.0961C19.1088 53.0961 18.4807 52.4683 18.4807 51.6968C18.4807 50.9253 19.1088 50.2975 19.8807 50.2975C20.6528 50.2975 21.2809 50.9253 21.2809 51.6968C21.2809 52.4683 20.6528 53.0961 19.8807 53.0961Z" fill="white"/>
<path d="M43.0746 50.3295H28.7059C27.9509 50.3295 27.3387 50.9416 27.3387 51.6967C27.3387 52.4518 27.9509 53.0638 28.7059 53.0638H43.0747C43.8297 53.0638 44.4419 52.4518 44.4419 51.6967C44.4419 50.9416 43.8297 50.3295 43.0746 50.3295Z" fill="white"/>
<path d="M43.0746 37.8285H28.7059C27.9509 37.8285 27.3387 38.4406 27.3387 39.1957C27.3387 39.9508 27.9509 40.5629 28.7059 40.5629H43.0747C43.8297 40.5629 44.4419 39.9508 44.4419 39.1957C44.4419 38.4406 43.8297 37.8285 43.0746 37.8285Z" fill="white"/>
<path d="M28.7059 28.0618H35.8903C36.6453 28.0618 37.2575 27.4497 37.2575 26.6946C37.2575 25.9395 36.6453 25.3274 35.8903 25.3274H28.7059C27.9509 25.3274 27.3387 25.9395 27.3387 26.6946C27.3387 27.4497 27.9508 28.0618 28.7059 28.0618Z" fill="white"/>
</g>
<defs>
<clipPath id="clip0">
<rect width="70" height="70" fill="white" transform="translate(0.5 0.5)"/>
</clipPath>
</defs>
</svg>
