<svg width="71" height="70" viewBox="0 0 71 70" fill="none" xmlns="http://www.w3.org/2000/svg">
<path d="M63.0333 32.2291L36.2292 59.0333C32.9455 62.317 28.4918 64.1617 23.8479 64.1617C19.2041 64.1617 14.7504 62.317 11.4667 59.0333C8.18297 55.7496 6.3382 51.2959 6.3382 46.652C6.3382 42.0081 8.18297 37.5545 11.4667 34.2708L38.2708 7.4666C40.46 5.27745 43.4291 4.04761 46.525 4.04761C49.6209 4.04761 52.59 5.27745 54.7792 7.4666C56.9683 9.65574 58.1982 12.6248 58.1982 15.7208C58.1982 18.8167 56.9683 21.7858 54.7792 23.9749L27.9458 50.7791C26.8513 51.8737 25.3667 52.4886 23.8188 52.4886C22.2708 52.4886 20.7862 51.8737 19.6917 50.7791C18.5971 49.6845 17.9822 48.2 17.9822 46.652C17.9822 45.1041 18.5971 43.6195 19.6917 42.5249L44.4542 17.7916" stroke="white" stroke-width="3" stroke-linecap="round" stroke-linejoin="round"/>
</svg>
