<svg width="71" height="71" viewBox="0 0 71 71" fill="none" xmlns="http://www.w3.org/2000/svg">
<g clip-path="url(#clip0)">
<path d="M65.842 19.5231H49.7461V13.4249C49.7461 10.8304 47.6354 8.7196 45.0408 8.7196H25.9592C23.3646 8.7196 21.2539 10.8304 21.2539 13.4249V19.5231H5.15801C2.58961 19.5231 0.5 21.6126 0.5 24.181V30.704C0.5 31.8565 1.43762 32.7941 2.59016 32.7941H2.90064V57.6223C2.90064 60.1907 4.99025 62.2803 7.55865 62.2803H63.4413C66.0097 62.2803 68.0994 60.1907 68.0994 57.6223V32.7941H68.4098C69.5624 32.7941 70.5 31.8565 70.5 30.704V24.181C70.5 21.6126 68.4104 19.5231 65.842 19.5231ZM23.3047 13.4249C23.3047 11.9612 24.4955 10.7704 25.9592 10.7704H45.0408C46.5045 10.7704 47.6953 11.9612 47.6953 13.4249V19.5231H46.2025V13.4249C46.2025 12.7843 45.6813 12.2632 45.0408 12.2632H25.9592C25.3186 12.2632 24.7975 12.7844 24.7975 13.4249V19.5231H23.3047V13.4249ZM44.1518 14.314V19.5231H26.8483V14.314H44.1518ZM66.049 57.6223H66.0486C66.0486 59.06 64.8789 60.2295 63.4413 60.2295H7.55865C6.12092 60.2295 4.95143 59.0599 4.95143 57.6223V32.7941H13.3469V36.8984C13.3469 38.2915 14.4802 39.4249 15.8732 39.4249H20.301C21.694 39.4249 22.8274 38.2916 22.8274 36.8984V32.7941H48.173V36.8984C48.173 38.2915 49.3063 39.4249 50.6994 39.4249H55.1272C56.5201 39.4249 57.6535 38.2916 57.6535 36.8984V32.7941H66.049V57.6223ZM15.3976 36.8984V31.7687V28.7604C15.3976 28.4982 15.6108 28.2847 15.8731 28.2847H20.3008C20.5631 28.2847 20.7765 28.4982 20.7765 28.7604V31.7687V36.8984C20.7765 37.1607 20.5631 37.3741 20.3008 37.3741H15.8731C15.6108 37.3741 15.3976 37.1607 15.3976 36.8984ZM50.2234 36.8984V31.7687V28.7604C50.2234 28.4982 50.4368 28.2847 50.699 28.2847H55.1268C55.389 28.2847 55.6023 28.4982 55.6023 28.7604V31.7687V36.8984C55.6023 37.1607 55.389 37.3741 55.1268 37.3741H50.699C50.4368 37.3741 50.2234 37.1607 50.2234 36.8984ZM68.4492 30.704C68.4492 30.7257 68.4316 30.7434 68.4098 30.7434H67.074H57.6531V28.7604C57.6531 27.3674 56.5198 26.234 55.1268 26.234H50.699C49.306 26.234 48.1726 27.3672 48.1726 28.7604V30.7434H22.8273V28.7604C22.8273 27.3674 21.694 26.234 20.3008 26.234H15.8731C14.4802 26.234 13.3468 27.3672 13.3468 28.7604V30.7434H3.92604H2.59016C2.56842 30.7434 2.55078 30.7257 2.55078 30.704V24.181C2.55078 22.7434 3.72041 21.5739 5.15801 21.5739H65.842C67.2797 21.5739 68.4492 22.7435 68.4492 24.181V30.704Z" fill="white"/>
</g>
<defs>
<clipPath id="clip0">
<rect width="70" height="70" fill="white" transform="translate(0.5 0.5)"/>
</clipPath>
</defs>
</svg>
