<svg width="25" height="25" viewBox="0 0 25 25" fill="none" xmlns="http://www.w3.org/2000/svg">
<g clip-path="url(#clip0)">
<path d="M23.5 3.50005C22.5424 4.17552 21.4821 4.69216 20.36 5.03005C19.7577 4.33756 18.9573 3.84674 18.067 3.62397C17.1767 3.40121 16.2395 3.45724 15.3821 3.7845C14.5247 4.11176 13.7884 4.69445 13.273 5.45376C12.7575 6.21308 12.4877 7.11238 12.5 8.03005V9.03005C10.7426 9.07561 9.00127 8.68586 7.43101 7.89549C5.86074 7.10513 4.51032 5.93868 3.5 4.50005C3.5 4.50005 -0.5 13.5 8.5 17.5C6.44053 18.898 3.98716 19.599 1.5 19.5C10.5 24.5 21.5 19.5 21.5 8.00005C21.4991 7.7215 21.4723 7.44364 21.42 7.17005C22.4406 6.16354 23.1608 4.89276 23.5 3.50005V3.50005Z" stroke="#FFDA02" stroke-width="2" stroke-linecap="round" stroke-linejoin="round"/>
</g>
<defs>
<clipPath id="clip0">
<rect width="24" height="24" fill="white" transform="translate(0.5 0.5)"/>
</clipPath>
</defs>
</svg>
