<svg width="31" height="31" viewBox="0 0 31 31" fill="none" xmlns="http://www.w3.org/2000/svg">
<path d="M1.24 5.76599C0.555303 5.76599 0 6.32114 0 7.00599V23.994C0 24.6788 0.555582 25.234 1.24 25.234H29.76C30.4447 25.234 31 24.6788 31 23.994V7.00599C31 6.32117 30.4444 5.76599 29.76 5.76599H1.24ZM18.5147 11.5678C19.2692 11.5678 19.8739 11.7345 20.2595 11.8895L19.996 13.547L19.8216 13.4588C19.4624 13.3039 19.001 13.1547 18.3646 13.1653C17.6027 13.1653 17.2505 13.5051 17.2505 13.8231C17.2461 14.1814 17.6621 14.4177 18.3423 14.7715C19.465 15.3174 19.9839 15.9793 19.9766 16.8495C19.9615 18.4372 18.6336 19.4632 16.5879 19.4632C15.7152 19.4535 14.8744 19.2688 14.4198 19.0553L14.693 17.3425L14.944 17.4646C15.5831 17.7502 15.9969 17.8657 16.7758 17.8657C17.3352 17.8657 17.9355 17.6315 17.9403 17.1188C17.9439 16.784 17.6893 16.5453 16.9318 16.1704C16.1936 15.8044 15.215 15.1915 15.2259 14.0924C15.2374 12.6056 16.5918 11.5678 18.5147 11.5678ZM2.74155 11.811H5.88321C6.30627 11.827 6.64783 11.9632 6.76575 12.4223L7.44291 15.9175C7.44301 15.9178 7.44279 15.9191 7.44291 15.9195L7.64634 16.9667L9.5538 11.811H11.6172L8.55017 19.3576L6.48867 19.3595L4.84762 13.2699C5.82406 13.7872 6.65536 14.3857 7.13679 15.2094C7.01266 14.9487 6.84911 14.6546 6.63983 14.3646C6.39611 14.027 5.86976 13.591 5.64975 13.4055C4.88312 12.7593 3.84198 12.2373 2.71734 11.9612L2.74155 11.811ZM12.4378 11.8197H14.4557L13.1934 19.3547H11.1755L12.4378 11.8197ZM23.8351 11.8197H25.3638L26.9642 19.3547H25.1294C25.1294 19.3547 24.9473 18.489 24.8882 18.2251C24.5998 18.2251 22.5828 18.2222 22.3558 18.2222C22.279 18.4262 21.9393 19.3546 21.9393 19.3546H19.8632L22.7995 12.4455C23.0074 11.9546 23.3618 11.8197 23.8351 11.8197ZM23.9853 13.8463C23.886 14.1266 23.7131 14.5792 23.7247 14.5593C23.7247 14.5593 23.1035 16.216 22.941 16.646L24.5733 16.645C24.4946 16.2714 24.118 14.4896 24.118 14.4896L23.9853 13.8464V13.8463Z" fill="#8061FF"/>
</svg>
