<svg width="71" height="71" viewBox="0 0 71 71" fill="none" xmlns="http://www.w3.org/2000/svg">
<g clip-path="url(#clip0)">
<path d="M13.1526 25.8053C20.1293 25.8053 25.8053 20.1293 25.8053 13.1526C25.8053 6.17602 20.1293 0.5 13.1526 0.5C6.17602 0.5 0.5 6.17602 0.5 13.1526C0.5 20.1293 6.17602 25.8053 13.1526 25.8053ZM13.1526 3.23438C18.6215 3.23438 23.0709 7.68375 23.0709 13.1526C23.0709 18.6215 18.6215 23.0709 13.1526 23.0709C7.68375 23.0709 3.23438 18.6215 3.23438 13.1526C3.23438 7.68375 7.68375 3.23438 13.1526 3.23438Z" fill="white"/>
<path d="M14.2403 16.1579C14.5072 16.4238 14.8564 16.5567 15.2056 16.5567C15.5561 16.5567 15.9069 16.4227 16.1739 16.1547C16.7069 15.6199 16.7055 14.7542 16.1708 14.2211L14.5291 12.5848V6.51562C14.5291 5.76066 13.9169 5.14844 13.1619 5.14844C12.4069 5.14844 11.7947 5.76066 11.7947 6.51562V13.1526C11.7947 13.516 11.9395 13.8645 12.1967 14.121L14.2403 16.1579Z" fill="white"/>
<path d="M69.1328 45.8907H60.7182C59.5615 44.2454 57.8236 43.08 55.8413 42.6466L49.8306 41.3323C52.2903 39.6734 53.9112 36.8614 53.9112 33.6777V30.3395V28.795V28.4474C53.9112 23.3598 49.7722 19.2208 44.6846 19.2208C39.597 19.2208 35.458 23.3598 35.458 28.4474V28.795V30.3395V33.6777C35.458 36.8573 37.0747 39.6664 39.5292 41.3262L33.5224 42.644C33.2657 42.7004 33.0135 42.7694 32.7656 42.8494V31.5352C32.7656 30.7803 32.1534 30.168 31.3984 30.168H22.1016C21.3466 30.168 20.7344 30.7803 20.7344 31.5352C20.7344 32.2902 21.3466 32.9024 22.1016 32.9024H30.0312V52.043H20.7344V45.2071C20.7344 42.9455 18.8944 41.1055 16.6328 41.1055C14.3712 41.1055 12.5312 42.9455 12.5312 45.2071V52.043H3.23438V32.9024H11.1641C11.919 32.9024 12.5312 32.2902 12.5312 31.5352C12.5312 30.7803 11.919 30.168 11.1641 30.168H1.86719C1.11223 30.168 0.5 30.7803 0.5 31.5352V53.4102C0.5 54.1652 1.11223 54.7774 1.86719 54.7774H12.5312V57.3751H12.3945C10.0575 57.3751 8.15625 59.2763 8.15625 61.6133V62.2969H1.86719C1.11223 62.2969 0.5 62.9092 0.5 63.6641V69.1329C0.5 69.8878 1.11223 70.5001 1.86719 70.5001H69.1328C69.8878 70.5001 70.5 69.8878 70.5 69.1329V63.6641V58.1954V52.7266V47.2579C70.5 46.5029 69.8878 45.8907 69.1328 45.8907ZM60.8174 62.2969H53V59.5626H67.7656V62.2969H60.8174ZM67.7656 56.8282H53V54.0938H67.7656V56.8282ZM67.7656 51.3594H53V48.6251H59.9554C59.9595 48.6251 59.9636 48.6259 59.9676 48.6259C59.9718 48.6259 59.9762 48.6251 59.9804 48.6251H67.7656V51.3594ZM38.1923 28.4476C38.1923 24.8677 41.1048 21.9553 44.6845 21.9553C48.0933 21.9553 50.8969 24.5959 51.157 27.9391L47.9789 26.0719C47.4031 25.7336 46.6673 25.8608 46.2384 26.3726C44.854 28.0248 42.8236 28.9726 40.668 28.9726H38.1924V28.7952V28.4476H38.1923ZM38.1923 31.7068H40.668C43.2417 31.7068 45.6855 30.7253 47.5319 28.9806L51.1769 31.1221V33.6779C51.1769 37.2577 48.2643 40.1701 44.6846 40.1701C41.1049 40.1701 38.1924 37.2576 38.1924 33.6779V31.7068H38.1923ZM46.8263 42.6509L44.6641 48.4332L42.4979 42.6405C43.1993 42.8116 43.9312 42.9045 44.6845 42.9045C45.422 42.9045 46.1385 42.8151 46.8263 42.6509ZM31.3984 54.7774C32.1534 54.7774 32.7656 54.1652 32.7656 53.4102V45.8055C33.1874 45.5832 33.6371 45.4183 34.1082 45.315L40.0883 44.003L43.3836 52.8155C43.5834 53.3497 44.0937 53.7038 44.6641 53.7038C45.2345 53.7038 45.7449 53.3497 45.9446 52.8154L49.2401 44.0023L55.2572 45.318C55.7854 45.4334 56.2866 45.6289 56.7477 45.8906H51.6328C50.8779 45.8906 50.2656 46.5028 50.2656 47.2577V52.7265V58.1952V62.2968H29.919V54.7773H31.3984V54.7774ZM27.1846 54.7774V62.2969H25.1094V61.6133C25.1094 59.2763 23.2082 57.3751 20.8711 57.3751H20.7344V54.7774H27.1846ZM15.2656 45.2071C15.2656 44.4532 15.8789 43.8399 16.6328 43.8399C17.3867 43.8399 18 44.4532 18 45.2071V57.3751H15.2656V45.2071ZM10.8906 61.6133C10.8906 60.7841 11.5653 60.1094 12.3945 60.1094H13.8984H19.3672H20.8711C21.7003 60.1094 22.375 60.7841 22.375 61.6133V62.2969H10.8906V61.6133ZM67.7656 67.7657H3.23438V65.0313H67.7656V67.7657Z" fill="white"/>
<path d="M15.6662 30.5686C15.4119 30.8229 15.2656 31.1756 15.2656 31.5352C15.2656 31.8947 15.4118 32.2475 15.6662 32.5016C15.9205 32.7559 16.2732 32.9023 16.6328 32.9023C16.9924 32.9023 17.3451 32.7561 17.5993 32.5016C17.8537 32.2475 18 31.8947 18 31.5352C18 31.1756 17.8537 30.8229 17.5993 30.5686C17.3451 30.3143 16.9924 30.168 16.6328 30.168C16.2732 30.168 15.9205 30.3141 15.6662 30.5686Z" fill="white"/>
</g>
<defs>
<clipPath id="clip0">
<rect width="70" height="70" fill="white" transform="translate(0.5 0.5)"/>
</clipPath>
</defs>
</svg>
